{"title":"The Hobbit An Unexpected Journey 2012 720p BluRay QEBSx AAC20 MP","uid":8835713,"size":3670816406,"categoryP":"video","categoryS":"hd___movies","magnet":"?xt=urn:btih:950f670180a621fd49b757261119c9319116c20e&amp;dn=The+Hobbit+An+Unexpected+Journey+2012+720p+BluRay+QEBSx+AAC20+MP&amp;tr=udp%3A%2F%2Ftracker.openbittorrent.com%3A80&amp;tr=udp%3A%2F%2Fopen.demonii.com%3A1337&amp;tr=udp%3A%2F%2Ftracker.coppersurfer.tk%3A6969&amp;tr=udp%3A%2F%2Fexodus.desync.com%3A6969","seeders":4,"leechers":0,"uploader":"SaM","files":9,"time":1377110359,"description":"Release with the new improved QEBSx_2 engine.\n\nSUBTITLES:\nENGLISH, POLISH others from other BluRay releases on subscene.com\n\nGeneral\nComplete name                  : The_Hobbit_An_Unexpected_Journey_2012_720p_BluRay_QEBSx_AAC20_MP4-FASM.mp4\nFormat                         : MPEG-4\nFormat profile                 : Base Media\nCodec ID                       : isom\nFile size                      : 3.40 GiB\nDuration                       : 2h 49mn\nOverall bit rate mode          : Variable\nOverall bit rate               : 2 868 Kbps\nEncoded date                   : UTC 2013-08-09 16:42:24\nTagged date                    : UTC 2013-08-09 16:42:24\n\nVideo\nID                             : 1\nFormat                         : AVC\nFormat/Info                    : Advanced Video Codec\nFormat profile                 : &lt;a class=&quot;__cf_email__&quot; href=&quot;/cdn-cgi/l/email-protection&quot; data-cfemail=&quot;4d05242a250d017e637c&quot;&gt;[email&amp;#160;protected]&lt;/a&gt;&lt;script cf-hash='f9e31' type=&quot;text/javascript&quot;&gt;\n/* &lt;![CDATA[ */!function(){try{var t=&quot;currentScript&quot;in document?document.currentScript:function(){for(var t=document.getElementsByTagName(&quot;script&quot;),e=t.length;e--;)if(t[e].getAttribute(&quot;cf-hash&quot;))return t[e]}();if(t&amp;&amp;t.previousSibling){var e,r,n,i,c=t.previousSibling,a=c.getAttribute(&quot;data-cfemail&quot;);if(a){for(e=&quot;&quot;,r=parseInt(a.substr(0,2),16),n=2;a.length-n;n+=2)i=parseInt(a.substr(n,2),16)^r,e+=String.fromCharCode(i);e=document.createTextNode(e),c.parentNode.replaceChild(e,c)}}}catch(u){}}();/* ]]&gt; */&lt;/script&gt;\nFormat settings, CABAC         : Yes\nFormat settings, ReFrames      : 5 frames\nCodec ID                       : avc1\nCodec ID/Info                  : Advanced Video Coding\nDuration                       : 2h 49mn\nBit rate                       : 2 721 Kbps\nMaximum bit rate               : 6 214 Kbps\nWidth                          : 1 280 pixels\nHeight                         : 528 pixels\nDisplay aspect ratio           : 2.40:1\nFrame rate mode                : Constant\nFrame rate                     : 23.976 fps\nColor space                    : YUV\nChroma subsampling             : 4:2:0\nBit depth                      : 8 bits\nScan type                      : Progressive\nBits/(Pixel*Frame)             : 0.168\nStream size                    : 3.22 GiB (95%)\nWriting library                : FASM Quality Enhancer Bitrate Squeezer X.2 (c)2013 Fachman\nEncoded date                   : UTC 2013-08-09 16:42:24\nTagged date                    : UTC 2013-08-09 16:44:08\nColor primaries                : BT.709\nTransfer characteristics       : BT.709\nMatrix coefficients            : BT.709\n\nAudio\nID                             : 2\nFormat                         : AAC\nFormat/Info                    : Advanced Audio Codec\nFormat profile                 : LC\nCodec ID                       : 40\nDuration                       : 2h 49mn\nBit rate mode                  : Variable\nBit rate                       : 144 Kbps\nMaximum bit rate               : 202 Kbps\nChannel(s)                     : 2 channels\nChannel positions              : Front: L R\nSampling rate                  : 48.0 KHz\nCompression mode               : Lossy\nStream size                    : 174 MiB (5%)\nLanguage                       : English\nEncoded date                   : UTC 2013-08-09 16:44:04\nTagged date                    : UTC 2013-08-09 16:44:08\n\n &lt;a href=&quot;\nhttp://thumbnails107.imagebam.com/27032/ff1a1d270311980.jpg&quot; rel=&quot;nofollow&quot; target=&quot;_NEW&quot;&gt;\nhttp://thumbnails107.imagebam.com/27032/ff1a1d270311980.jpg&lt;/a&gt;","torrent":{"xt":"urn:btih:950f670180a621fd49b757261119c9319116c20e","amp;dn":"The+Hobbit+An+Unexpected+Journey+2012+720p+BluRay+QEBSx+AAC20+MP","amp;tr":["udp%3A%2F%2Ftracker.openbittorrent.com%3A80","udp%3A%2F%2Fopen.demonii.com%3A1337","udp%3A%2F%2Ftracker.coppersurfer.tk%3A6969","udp%3A%2F%2Fexodus.desync.com%3A6969"],"infoHash":"950f670180a621fd49b757261119c9319116c20e","infoHashBuffer":{"type":"Buffer","data":[149,15,103,1,128,166,33,253,73,183,87,38,17,25,201,49,145,22,194,14]},"announce":[],"urlList":[]}}